<svg width="32" height="32" viewBox="0 0 32 32" fill="none" xmlns="http://www.w3.org/2000/svg">
<path fill-rule="evenodd" clip-rule="evenodd" d="M7.71672 18.6927C7.77508 18.7125 7.83399 18.7263 7.89284 18.7348C7.95703 18.8858 8.03995 19.0808 8.13669 19.309C8.37279 19.8658 8.69091 20.619 9.01928 21.4046C9.68893 23.0068 10.3644 24.6584 10.5136 25.1312C10.6983 25.7156 10.8935 26.113 11.1066 26.3843C11.2168 26.5246 11.3443 26.647 11.4934 26.7398C11.5684 26.7864 11.6477 26.8247 11.7305 26.8532C11.7342 26.8546 11.7378 26.8558 11.7414 26.857C12.1681 27.018 12.5571 26.951 12.8007 26.869C12.931 26.825 13.0365 26.772 13.1112 26.7291C13.1493 26.7071 13.1815 26.6867 13.2072 26.6694L13.2132 26.6654L16.9815 24.3154L21.3343 27.6524C21.3984 27.7016 21.4685 27.743 21.5427 27.7754C22.0656 28.0035 22.572 28.0831 23.0483 28.018C23.5239 27.9531 23.9013 27.7534 24.1824 27.5285C24.4576 27.3083 24.6443 27.0616 24.7604 26.8784C24.8197 26.7848 24.8643 26.702 24.8957 26.6387C24.9115 26.6068 24.9241 26.5794 24.934 26.5574L24.9465 26.5283L24.9513 26.5168L24.9533 26.512L24.9541 26.5098L24.9551 26.5076C24.9779 26.4504 24.9955 26.3912 25.0075 26.3308L28.9811 6.29691C28.9937 6.23284 29.0001 6.16766 29.0001 6.10234C29.0001 5.51566 28.7791 4.9578 28.2593 4.61928C27.8151 4.32995 27.3201 4.31749 27.0075 4.34123C26.67 4.36684 26.3584 4.45013 26.1493 4.51668C26.0405 4.55132 25.9492 4.58473 25.8835 4.61023C25.8504 4.62304 25.8233 4.63404 25.8031 4.64243L25.788 4.6488L3.503 13.3909L3.50012 13.3919C3.48592 13.3971 3.46768 13.4039 3.44602 13.4123C3.40287 13.4291 3.34504 13.4527 3.27751 13.4834C3.1458 13.5431 2.96103 13.6363 2.77142 13.7662C2.4685 13.9737 1.77184 14.5418 1.88915 15.4795C1.98274 16.2277 2.49524 16.6871 2.8075 16.9081C2.97895 17.0294 3.14184 17.1161 3.26047 17.1726C3.3155 17.1987 3.42976 17.2451 3.47934 17.2654L3.49186 17.2705L7.71672 18.6927ZM26.5679 6.4904L26.5648 6.49176C26.5536 6.49658 26.5425 6.5012 26.5312 6.50563L4.2192 15.2583C4.20755 15.2628 4.19582 15.2673 4.184 15.2714L4.17159 15.276C4.15731 15.2816 4.13328 15.2914 4.10312 15.305C4.08601 15.3127 4.06816 15.3213 4.04996 15.3303C4.07496 15.3445 4.0989 15.3566 4.12016 15.3667C4.14058 15.3764 4.15615 15.3831 4.16467 15.3866L8.35484 16.7972C8.43154 16.8231 8.50303 16.8572 8.56865 16.8986L22.4044 8.79922L22.4173 8.79157C22.4273 8.78561 22.4407 8.77796 22.4565 8.76898C22.488 8.75118 22.5312 8.72749 22.5827 8.70129C22.6787 8.65242 22.8324 8.57988 23.0055 8.52638C23.1259 8.48914 23.4812 8.38422 23.8653 8.50744C24.1024 8.58348 24.3479 8.74696 24.5076 9.02389C24.5868 9.16148 24.6291 9.29969 24.6496 9.42621C24.704 9.62552 24.6953 9.82233 24.6528 9.99224C24.5611 10.3583 24.304 10.6437 24.07 10.8621C23.8695 11.0493 21.2756 13.5505 18.7168 16.0195C17.4407 17.2507 16.1777 18.4699 15.2336 19.3811L14.6136 19.9798L22.4428 25.9822C22.6224 26.0464 22.7285 26.0432 22.7776 26.0364C22.8361 26.0284 22.884 26.0059 22.9329 25.9669C22.9876 25.9231 23.0355 25.8639 23.0712 25.8075L23.0727 25.8052L26.9267 6.37461C26.8695 6.38836 26.8116 6.40473 26.7559 6.42246C26.6928 6.44256 26.6407 6.4617 26.6063 6.47508C26.5891 6.4817 26.5768 6.48673 26.5701 6.4895L26.5679 6.4904ZM15.2861 23.0156L13.7241 21.818L13.3457 24.2256L15.2861 23.0156ZM12.2913 19.4418L13.8445 17.9422C14.7887 17.0309 16.0519 15.8116 17.3281 14.5802L18.6248 13.3293L9.93137 18.4183L9.97801 18.5283C10.2149 19.0871 10.5345 19.8435 10.8646 20.6334C11.1114 21.2239 11.3696 21.8458 11.6047 22.4215L11.982 20.021C12.0184 19.7895 12.1315 19.5892 12.2913 19.4418Z" fill="white"/>
</svg>
