<svg width="32" height="32" viewBox="0 0 32 32" fill="none" xmlns="http://www.w3.org/2000/svg">
<path fill-rule="evenodd" clip-rule="evenodd" d="M31.2067 22.4866C30.4815 21.0259 29.5259 19.6917 28.3767 18.535C27.9856 18.0803 27.5271 17.6317 27.1691 17.2815L27.1191 17.2326C26.9344 17.0518 26.7819 16.9018 26.6571 16.7726C28.2284 14.5875 29.5734 12.2479 30.6707 9.78955L30.715 9.69036L30.746 9.58627C30.8902 9.10241 31.0563 8.18232 30.4687 7.35081C29.8614 6.49137 28.8888 6.33637 28.2376 6.33637H25.2415C24.617 6.30775 23.9984 6.4766 23.4744 6.81989C22.9464 7.16577 22.5426 7.67029 22.3203 8.26005C21.6751 9.79697 20.8678 11.2589 19.913 12.6212V9.11017C19.913 8.65632 19.8703 7.89711 19.3843 7.25631C18.8024 6.48905 17.961 6.33637 17.3768 6.33637H12.6228C12.0103 6.32221 11.4146 6.54121 10.9568 6.95004C10.488 7.36871 10.2007 7.95353 10.1559 8.58049L10.1516 8.63988V8.69943C10.1516 9.34673 10.4081 9.82421 10.613 10.1245C10.7048 10.2589 10.8029 10.3813 10.8649 10.4586L10.8792 10.4765C10.9453 10.5589 10.9894 10.6139 11.0337 10.6741C11.1502 10.8326 11.3177 11.0768 11.3651 11.7089V13.6729C10.5455 12.3256 9.68092 10.5327 9.03039 8.61784L9.0204 8.58845L9.00933 8.55945C8.84713 8.13463 8.58697 7.51649 8.06592 7.04347C7.45721 6.49087 6.73724 6.33637 6.08247 6.33637H3.04253C2.38012 6.33637 1.58155 6.49135 0.98569 7.11991C0.399738 7.73803 0.333374 8.47868 0.333374 8.87248V9.04999L0.370759 9.22351C1.21277 13.1317 2.94772 16.7915 5.43932 19.9169C6.56895 21.6982 8.09961 23.1914 9.90955 24.2766C11.7484 25.3793 13.8228 26.0291 15.962 26.1729L16.0178 26.1766H16.0738C17.0415 26.1766 18.0504 26.0931 18.8091 25.5875C19.8326 24.9055 19.913 23.8581 19.913 23.3361V21.8189C20.1756 22.0311 20.5015 22.317 20.9004 22.7011C21.3827 23.1838 21.7667 23.6021 22.096 23.9671L22.2718 24.1626L22.2728 24.1637C22.5286 24.4485 22.7803 24.7289 23.0095 24.9593C23.2976 25.2489 23.6528 25.5681 24.0994 25.8038C24.5828 26.0591 25.0903 26.1746 25.6294 26.1746H28.6714C29.3122 26.1746 30.2314 26.023 30.8776 25.2738C31.5819 24.4573 31.5282 23.4565 31.3067 22.7373L31.2668 22.6079L31.2067 22.4866ZM23.581 22.6274C23.2386 22.2478 22.8256 21.7978 22.3038 21.2761L22.2995 21.2718C20.4914 19.5285 19.6464 19.2247 19.0491 19.2247C18.7314 19.2247 18.3798 19.2605 18.1516 19.5446C18.0439 19.6787 17.9874 19.8406 17.9556 20.0093C17.9239 20.1777 17.913 20.3754 17.913 20.6006V23.3361C17.913 23.6758 17.8571 23.8185 17.7 23.9233C17.4907 24.0627 17.0434 24.1758 16.085 24.1766C14.2658 24.0526 12.5019 23.4991 10.938 22.5614C9.37093 21.6218 8.04949 20.3233 7.08253 18.7729L7.07201 18.7561L7.05956 18.7405C4.73787 15.8507 3.12008 12.4609 2.33377 8.83872C2.33804 8.66411 2.37587 8.56052 2.43716 8.49585C2.50032 8.42923 2.65336 8.33637 3.04253 8.33637H6.08247C6.42063 8.33637 6.59564 8.40993 6.7216 8.52428C6.8644 8.65392 6.98825 8.87407 7.13872 9.26715C7.88487 11.4618 8.89388 13.5142 9.84937 15.0233C10.3269 15.7775 10.797 16.4054 11.2204 16.849C11.4318 17.0706 11.6391 17.2541 11.837 17.3846C12.0285 17.5109 12.2456 17.6105 12.4688 17.6105C12.5866 17.6105 12.7244 17.5983 12.8571 17.5395C12.9998 17.4765 13.1106 17.3711 13.1888 17.2299C13.3272 16.9803 13.3651 16.6106 13.3651 16.1262V11.6412L13.3644 11.6307C13.2953 10.5396 12.9659 9.92583 12.6451 9.48949C12.5748 9.39387 12.5055 9.30749 12.4448 9.23191L12.4282 9.2112C12.3616 9.12813 12.3086 9.06101 12.2651 8.99719C12.1853 8.88024 12.1543 8.79871 12.1518 8.71133C12.1622 8.60763 12.2111 8.5114 12.289 8.44177C12.37 8.36951 12.4759 8.33188 12.5843 8.33637H17.3768C17.6516 8.33637 17.7442 8.40341 17.7907 8.46483C17.8564 8.55152 17.913 8.73183 17.913 9.11017V15.1483C17.913 15.8655 18.2436 16.3511 18.7238 16.3511C19.2763 16.3511 19.6746 16.0159 20.3711 15.3194L20.3827 15.3078L20.3931 15.295C21.9542 13.3914 23.23 11.2706 24.1796 8.99916L24.1856 8.98213C24.2571 8.78143 24.3922 8.6096 24.5704 8.49285C24.7486 8.37612 24.96 8.32088 25.1726 8.33559L25.1842 8.33637H28.2376C28.654 8.33637 28.7911 8.44236 28.8354 8.50504C28.8824 8.57172 28.9152 8.71464 28.8352 8.99492C27.7404 11.4435 26.3866 13.7677 24.7974 15.9285L24.7874 15.9437C24.6331 16.1797 24.4639 16.4407 24.4394 16.7405C24.4131 17.0623 24.5524 17.355 24.796 17.6686C24.9736 17.9311 25.3399 18.2897 25.7115 18.6534L25.7466 18.6877C26.1362 19.069 26.5582 19.4821 26.897 19.8821L26.906 19.8926L26.9159 19.9025C27.9259 20.9099 28.7658 22.0746 29.4027 23.3509C29.5044 23.6983 29.4422 23.8759 29.3631 23.9675C29.2707 24.0747 29.0635 24.1746 28.6714 24.1746H25.6294C25.3918 24.1746 25.2084 24.1278 25.0332 24.0353C24.8507 23.9389 24.663 23.7855 24.4275 23.5489C24.2379 23.3582 24.0307 23.1275 23.7779 22.8463C23.7152 22.7766 23.6498 22.7035 23.581 22.6274Z" fill="white"/>
</svg>
