<svg width="32" height="32" viewBox="0 0 32 32" fill="none" xmlns="http://www.w3.org/2000/svg">
<path d="M17 1C9.3 1 3 7.3 3 15C3 18.4 4.3 21.6 6.3 24L4 31L11.3 27.8C13 28.6 15 29 17 29C24.7 29 31 22.7 31 15C31 7.3 24.7 1 17 1Z" stroke="white" stroke-width="2" stroke-miterlimit="10" stroke-linecap="round" stroke-linejoin="round"/>
<path d="M24.7 20.1C25 19.2 25 18.5 24.9 18.3C24.8 18.1 24.6 18.1 24.2 17.9C23.8 17.7 22 16.8 21.7 16.7C21.4 16.6 21 16.6 20.8 17C20.4 17.5 20.1 18 19.8 18.3C19.6 18.5 19.2 18.6 18.9 18.4C18.5 18.2 17.3 17.8 15.9 16.6C14.8 15.6 14.1 14.4 13.8 14C13.6 13.6 13.8 13.4 14 13.2C14.2 13 14.4 12.8 14.6 12.6C14.8 12.4 14.9 12.3 15 12C15.1 11.8 15 11.5 14.9 11.3C14.8 11.1 14.1 9.3 13.8 8.6C13.6 8 13.4 8 13 8C12.9 8 12.7 8 12.6 8C12.1 8 11.6 8.1 11.3 8.5C10.9 8.9 10 9.8 10 11.6C10 13.4 11.3 15.2 11.5 15.4C11.7 15.6 14.1 19.4 17.8 21C20.7 22.2 21.6 22.1 22.2 22C23.2 21.7 24.4 21 24.7 20.1Z" stroke="white" stroke-width="2"/>
</svg>
